<svg id="Capa_1" enable-background="new 0 0 512 512" height="512" viewBox="0 0 512 512" width="512" xmlns="http://www.w3.org/2000/svg"><g><path d="m415.374 484.281-150-120-9.374 11.719-9.376-11.719-150 120 18.75 23.438 125.626-100.5v104.781h30v-104.781l125.624 100.5z" fill="#575f64"/><path d="m271 512v-104.781l125.624 100.5 18.75-23.438-150-120-9.374 11.719v136z" fill="#474f54"/><g><path d="m331 76h-30v-46h-90v46h-30v-76h150z" fill="#575f64"/></g><path d="m331 76v-76h-75v30h45v46z" fill="#474f54"/><g><path d="m512 391h-512v-330h512z" fill="#f0f7ff"/></g><path d="m256 61h256v330h-256z" fill="#dfe7f4"/><g id="Slideshow_2_"><g><path d="m256 226c0 57.9-47.1 105-105 105s-105-47.1-105-105 47.1-105 105-105v105z" fill="#ff641a"/></g><g><path d="m301 121h150v30h-150z" fill="#474f54"/></g><g><path d="m301 181h150v30h-150z" fill="#474f54"/></g><g><path d="m301 241h150v30h-150z" fill="#474f54"/></g><g><path d="m301 301h150v30h-150z" fill="#474f54"/></g></g><path d="m151 121v105h105c0-57.9-47.1-105-105-105z" fill="#fabe2c"/><path d="m256 226h-105v105c57.9 0 105-47.1 105-105z" fill="#f03800"/></g></svg>